<svg width="1268" height="187" viewBox="0 0 1268 187" fill="none" xmlns="http://www.w3.org/2000/svg">
<mask id="mask0_11_112" style="mask-type:luminance" maskUnits="userSpaceOnUse" x="0" y="0" width="1268" height="187">
<path d="M1268 0H0V186.667H1268V0Z" fill="white"/>
</mask>
<g mask="url(#mask0_11_112)">
<path d="M100.837 47.3517L15.8993 127.289C14.6753 128.529 14.0659 129.945 14.0659 131.539C14.0659 132.904 14.5243 134.076 15.4409 135.06C16.368 136.034 17.5086 136.518 18.8576 136.518H104.899V140.956H18.8576C16.2743 140.956 14.0868 140.07 12.2951 138.289C10.5138 136.498 9.62842 134.248 9.62842 131.539C9.62842 129.695 10.0243 128.159 10.8159 126.935C11.618 125.701 12.5763 124.591 13.6909 123.602L98.6284 43.6642C99.4878 42.9299 100.009 42.284 100.191 41.7267C100.368 41.1746 100.462 40.4038 100.462 39.4142C100.462 38.0549 99.993 36.9142 99.0659 35.9976C98.1493 35.0705 97.0138 34.6017 95.6701 34.6017H9.62842V30.1851H95.6701C98.1284 30.1851 100.279 31.0809 102.128 32.8726C103.972 34.6538 104.899 36.8309 104.899 39.4142C104.899 41.2632 104.493 42.8049 103.691 44.0392C102.899 45.2632 101.946 46.3674 100.837 47.3517Z" fill="white"/>
<path d="M219.18 136.518V140.956H136.284C133.685 140.956 131.493 140.034 129.701 138.185C127.92 136.341 127.034 134.185 127.034 131.727V39.4142C127.034 36.9559 127.92 34.8049 129.701 32.9559C131.493 31.1121 133.685 30.1851 136.284 30.1851H219.18V34.6017H136.284C134.92 34.6017 133.774 35.0705 132.847 35.9976C131.93 36.9142 131.472 38.0549 131.472 39.4142V84.2684C137.623 82.1851 144.019 81.0809 150.659 80.9559C157.31 80.8309 163.711 81.758 169.868 83.7267C175.784 85.5757 181.909 86.3726 188.243 86.1226C194.586 85.8726 200.774 84.7059 206.805 82.6226V87.0392C200.524 89.0132 194.097 90.0601 187.513 90.1851C180.93 90.3101 174.555 89.3882 168.388 87.4142C162.357 85.5705 156.17 84.7424 149.826 84.9351C143.493 85.1174 137.373 86.2476 131.472 88.3309V131.727C131.472 132.966 131.93 134.076 132.847 135.06C133.774 136.034 134.92 136.518 136.284 136.518H219.18Z" fill="white"/>
<path d="M327.355 139.102L254.417 34.2475C253.678 33.0131 252.271 32.3933 250.188 32.3933C248.823 32.3933 247.678 32.8621 246.75 33.7891C245.834 34.7058 245.375 35.8464 245.375 37.2058V140.956H240.938V37.2058C240.938 34.7371 241.823 32.5756 243.605 30.7266C245.396 28.8829 247.589 27.9558 250.188 27.9558C252.021 27.9558 253.584 28.3308 254.875 29.0808C256.178 29.8204 257.261 30.7996 258.125 32.0183L331.042 136.893C331.777 138.133 333.193 138.747 335.292 138.747C336.636 138.747 337.771 138.289 338.688 137.372C339.615 136.445 340.084 135.3 340.084 133.935V30.185H344.521V133.935C344.521 136.393 343.625 138.55 341.834 140.393C340.053 142.237 337.875 143.164 335.292 143.164C333.443 143.164 331.875 142.794 330.584 142.06C329.292 141.32 328.214 140.341 327.355 139.102Z" fill="white"/>
<path d="M498.292 27.9558C509.375 27.9558 519.031 29.9298 527.271 33.8725C535.521 37.8204 541.489 44.1589 545.187 52.8933L541.125 54.9141C537.802 47.0391 532.385 41.3204 524.875 37.7475C517.375 34.1798 508.51 32.3933 498.292 32.3933C490.901 32.3933 483.823 33.3516 477.062 35.2683C470.297 37.1746 464.792 40.0964 460.542 44.0391C456.292 47.9714 454.167 53.1381 454.167 59.5391C454.167 65.2058 456.01 69.5496 459.708 72.56C463.401 75.5756 468.568 77.7891 475.208 79.2058C481.859 80.6225 489.489 82.0079 498.104 83.3516C507.588 84.8256 516.052 86.4871 523.5 88.3308C530.943 90.1798 536.844 92.8881 541.208 96.4558C545.583 100.029 547.771 105.201 547.771 111.977C547.771 117.508 546.292 122.242 543.333 126.185C540.385 130.133 536.448 133.367 531.521 135.893C526.604 138.409 521.156 140.247 515.187 141.414C509.213 142.581 503.213 143.164 497.187 143.164C490.047 143.164 483.125 142.3 476.417 140.581C469.708 138.862 463.734 136.154 458.5 132.456C453.276 128.763 449.187 124.029 446.229 118.247L450.292 116.393C453.984 123.909 460.109 129.513 468.667 133.206C477.219 136.904 486.604 138.747 496.812 138.747C502.229 138.747 507.672 138.227 513.146 137.185C518.63 136.133 523.651 134.529 528.208 132.372C532.76 130.221 536.422 127.451 539.187 124.06C541.963 120.675 543.354 116.706 543.354 112.164C543.354 106.372 541.292 101.945 537.167 98.8725C533.042 95.7891 527.562 93.4766 520.729 91.935C513.896 90.3933 506.354 89.0131 498.104 87.7891C491.588 86.8048 485.437 85.7579 479.646 84.6433C473.864 83.5339 468.729 82.0287 464.229 80.1225C459.739 78.2214 456.198 75.6121 453.604 72.2891C451.021 68.9558 449.729 64.6433 449.729 59.3516C449.729 52.0912 452.031 46.1537 456.646 41.5391C461.271 36.9141 467.302 33.4975 474.75 31.2891C482.193 29.0704 490.042 27.9558 498.292 27.9558Z" fill="white"/>
<path d="M664.641 136.518V140.956H581.746C579.147 140.956 576.954 140.034 575.162 138.185C573.381 136.341 572.496 134.185 572.496 131.727V39.4142C572.496 36.9559 573.381 34.8049 575.162 32.9559C576.954 31.1121 579.147 30.1851 581.746 30.1851H664.641V34.6017H581.746C580.381 34.6017 579.235 35.0705 578.308 35.9976C577.391 36.9142 576.933 38.0549 576.933 39.4142V84.2684C583.084 82.1851 589.48 81.0809 596.121 80.9559C602.772 80.8309 609.173 81.758 615.329 83.7267C621.246 85.5757 627.371 86.3726 633.704 86.1226C640.048 85.8726 646.235 84.7059 652.266 82.6226V87.0392C645.985 89.0132 639.558 90.0601 632.975 90.1851C626.391 90.3101 620.016 89.3882 613.85 87.4142C607.819 85.5705 601.631 84.7424 595.287 84.9351C588.954 85.1174 582.834 86.2476 576.933 88.3309V131.727C576.933 132.966 577.391 134.076 578.308 135.06C579.235 136.034 580.381 136.518 581.746 136.518H664.641Z" fill="white"/>
<path d="M739.587 138.747C746.097 138.747 752.368 137.951 758.4 136.352C764.441 134.742 769.889 132.279 774.754 128.956C779.613 125.638 783.462 121.388 786.295 116.206L790.17 118.247C787.087 124.029 782.926 128.763 777.691 132.456C772.467 136.154 766.592 138.862 760.066 140.581C753.551 142.3 746.722 143.164 739.587 143.164C729.004 143.164 719.337 141.195 710.587 137.268C701.847 133.326 694.9 127.112 689.733 118.622C684.566 110.122 681.983 99.1016 681.983 85.56C681.983 71.9089 684.566 60.8673 689.733 52.435C694.9 44.0079 701.847 37.8204 710.587 33.8725C719.337 29.9298 729.004 27.9558 739.587 27.9558C750.17 27.9558 760.108 29.9558 769.4 33.9558C778.691 37.9558 785.613 44.3308 790.17 53.0808L786.295 54.9141C783.462 49.6225 779.613 45.3516 774.754 42.1016C769.889 38.8412 764.441 36.4089 758.4 34.81C752.368 33.2006 746.097 32.3933 739.587 32.3933C729.738 32.3933 720.78 34.2162 712.712 37.8516C704.655 41.4766 698.254 47.2006 693.504 55.0183C688.764 62.8256 686.4 73.0079 686.4 85.56C686.4 98.1173 688.764 108.305 693.504 116.122C698.254 123.945 704.655 129.675 712.712 133.31C720.78 136.935 729.738 138.747 739.587 138.747Z" fill="white"/>
<path d="M909.788 142.81L867.704 99.2267H852.746C850.038 99.2267 847.819 98.4663 846.1 96.9351C844.376 95.3934 843.517 93.2684 843.517 90.5601C843.517 87.8517 844.376 85.6642 846.1 83.9976C847.819 82.3309 850.038 81.4976 852.746 81.4976C853.355 81.4976 854.272 81.6226 855.496 81.8726C856.73 82.1226 857.84 82.7424 858.829 83.7267L869.35 94.8101H877.663C883.204 94.8101 888.277 93.7632 892.892 91.6642C897.517 89.5705 901.184 86.3049 903.892 81.8726C906.6 77.4455 907.954 71.7215 907.954 64.7059C907.954 57.5705 906.6 51.8205 903.892 47.4559C901.184 43.0809 897.517 39.8465 892.892 37.7476C888.277 35.6538 883.204 34.6017 877.663 34.6017H821.184C819.819 34.6017 818.673 35.0705 817.746 35.9976C816.829 36.9142 816.371 38.0549 816.371 39.4142V140.956H811.934V39.4142C811.934 36.9559 812.819 34.8049 814.6 32.9559C816.392 31.1121 818.585 30.1851 821.184 30.1851H877.663C884.064 30.1851 889.876 31.3621 895.1 33.7059C900.335 36.0392 904.522 39.7632 907.663 44.8726C910.798 49.9715 912.371 56.5809 912.371 64.7059C912.371 72.8309 910.798 79.4246 907.663 84.4767C904.522 89.5184 900.335 93.2424 895.1 95.6434C889.876 98.034 884.064 99.2267 877.663 99.2267H873.6L912.934 140.227L909.788 142.81ZM852.559 94.8101H863.454L856.809 87.7892C856.069 86.9299 855.272 86.409 854.413 86.2267C853.548 86.034 852.871 85.9351 852.371 85.9351C850.772 85.9351 849.632 86.4299 848.954 87.4142C848.272 88.4038 847.934 89.3882 847.934 90.3726C847.934 91.4871 848.335 92.508 849.142 93.4351C849.944 94.3517 851.085 94.8101 852.559 94.8101Z" fill="white"/>
<path d="M1031.09 136.518V140.956H948.195C945.596 140.956 943.403 140.034 941.611 138.185C939.83 136.341 938.945 134.185 938.945 131.727V39.4142C938.945 36.9559 939.83 34.8049 941.611 32.9559C943.403 31.1121 945.596 30.1851 948.195 30.1851H1031.09V34.6017H948.195C946.83 34.6017 945.684 35.0705 944.757 35.9976C943.841 36.9142 943.382 38.0549 943.382 39.4142V84.2684C949.533 82.1851 955.929 81.0809 962.57 80.9559C969.221 80.8309 975.622 81.758 981.778 83.7267C987.695 85.5757 993.82 86.3726 1000.15 86.1226C1006.5 85.8726 1012.68 84.7059 1018.72 82.6226V87.0392C1012.43 89.0132 1006.01 90.0601 999.424 90.1851C992.841 90.3101 986.466 89.3882 980.299 87.4142C974.268 85.5705 968.08 84.7424 961.736 84.9351C955.403 85.1174 949.283 86.2476 943.382 88.3309V131.727C943.382 132.966 943.841 134.076 944.757 135.06C945.684 136.034 946.83 136.518 948.195 136.518H1031.09Z" fill="white"/>
<path d="M1094.95 140.956H1090.52V34.6017H1039.56V30.1851H1144.43V34.6017H1094.95V140.956Z" fill="white"/>
<path d="M1207.93 27.9558C1219.01 27.9558 1228.67 29.9298 1236.91 33.8725C1245.16 37.8204 1251.13 44.1589 1254.83 52.8933L1250.76 54.9141C1247.44 47.0391 1242.02 41.3204 1234.51 37.7475C1227.01 34.1798 1218.15 32.3933 1207.93 32.3933C1200.54 32.3933 1193.46 33.3516 1186.7 35.2683C1179.93 37.1746 1174.43 40.0964 1170.18 44.0391C1165.93 47.9714 1163.8 53.1381 1163.8 59.5391C1163.8 65.2058 1165.65 69.5496 1169.35 72.56C1173.04 75.5756 1178.21 77.7891 1184.85 79.2058C1191.5 80.6225 1199.13 82.0079 1207.74 83.3516C1217.23 84.8256 1225.69 86.4871 1233.14 88.3308C1240.58 90.1798 1246.48 92.8881 1250.85 96.4558C1255.22 100.029 1257.41 105.201 1257.41 111.977C1257.41 117.508 1255.93 122.242 1252.97 126.185C1250.02 130.133 1246.09 133.367 1241.16 135.893C1236.24 138.409 1230.79 140.247 1224.83 141.414C1218.85 142.581 1212.85 143.164 1206.83 143.164C1199.68 143.164 1192.76 142.3 1186.05 140.581C1179.35 138.862 1173.37 136.154 1168.14 132.456C1162.91 128.763 1158.83 124.029 1155.87 118.247L1159.93 116.393C1163.62 123.909 1169.75 129.513 1178.3 133.206C1186.86 136.904 1196.24 138.747 1206.45 138.747C1211.87 138.747 1217.31 138.227 1222.78 137.185C1228.27 136.133 1233.29 134.529 1237.85 132.372C1242.4 130.221 1246.06 127.451 1248.83 124.06C1251.6 120.675 1252.99 116.706 1252.99 112.164C1252.99 106.372 1250.93 101.945 1246.8 98.8725C1242.68 95.7891 1237.2 93.4766 1230.37 91.935C1223.53 90.3933 1215.99 89.0131 1207.74 87.7891C1201.23 86.8048 1195.08 85.7579 1189.28 84.6433C1183.5 83.5339 1178.37 82.0287 1173.87 80.1225C1169.38 78.2214 1165.84 75.6121 1163.24 72.2891C1160.66 68.9558 1159.37 64.6433 1159.37 59.3516C1159.37 52.0912 1161.67 46.1537 1166.28 41.5391C1170.91 36.9141 1176.94 33.4975 1184.39 31.2891C1191.83 29.0704 1199.68 27.9558 1207.93 27.9558Z" fill="white"/>
</g>
</svg>
