<svg width="1280" height="1280" viewBox="0 0 1280 1280" fill="none" xmlns="http://www.w3.org/2000/svg">
<path d="M601.12 165H639.52L661.92 166.92L684.32 170.12L707.36 175.24L725.28 180.36L743.84 186.76L762.4 194.44L783.52 204.68L798.24 213L813.6 222.6L824.48 230.28L834.72 237.96L845.6 246.92L852 252.68L857.12 257.16L878.24 278.28L884 285.32L892.32 294.92L901.92 307.72L909.6 318.6L918.56 332.68L926.24 346.12L933.92 360.84L942.24 379.4L950.56 401.8L955.68 418.44L959.52 433.8L963.36 453.64L965.92 472.2L967.2 485L967.84 495.88V840.2L964.64 841.48L962.08 840.84L961.44 840.2L960.8 490.76L958.88 469.64L955.68 449.16L950.56 426.12L944.8 406.28L937.76 386.44L928.8 365.96L921.12 350.6L912.16 335.24L901.92 319.24L894.24 309L887.84 300.68L882.08 293.64L875.04 285.32L866.08 275.72L851.36 261L846.24 256.52L836.64 248.2L825.76 239.88L815.52 232.2L800.8 222.6L786.72 214.28L772.64 206.6L751.52 197L732.96 189.96L714.4 184.2L693.92 179.08L673.44 175.24L652.32 172.68L629.28 171.4H608.8L587.68 172.68L571.04 174.6L552.48 177.8L533.28 182.28L513.44 188.04L497.44 193.8L480.8 200.84L464.8 208.52L446.88 218.12L434.72 225.8L424.48 232.84L414.24 240.52L405.92 246.92L396.96 254.6L390.56 260.36L382.24 268.04L370.72 279.56L366.24 284.68L360.48 291.08L353.44 300.04L348.32 306.44L340 317.96L333.6 327.56L325.28 341L316.96 356.36L307.36 376.2L300.32 394.12L293.28 415.24L288.16 434.44L283.68 458.12L281.12 478.6L279.84 495.88V769.16L279.2 847.24H273.44L272.8 504.2L273.44 488.2L275.36 468.36L278.56 447.88L282.4 429.96L287.52 410.76L295.2 388.36L301.6 373L307.36 360.2L313.76 348.04L320.8 335.24L330.4 319.88L338.08 309L345.76 298.76L354.08 288.52L361.12 280.84L365.6 275.72L367.52 273.16H368.8L370.08 270.6L380.32 260.36L385.44 255.88L394.4 247.56L403.36 240.52L410.4 234.76L421.92 226.44L431.52 220.04L444.96 211.72L462.24 202.12L479.52 193.8L496.8 186.76L519.84 179.08L533.28 175.24L556.96 170.12L578.72 166.92L601.12 165Z" fill="#080808"/>
<path d="M273.44 1109.64H967.2L968.48 1112.2L967.84 1114.12L964.64 1114.76H295.2L272.16 1114.12V1110.28L273.44 1109.64Z" fill="#080808"/>
<path d="M672.8 460.68H681.76L693.28 461.96L704.16 464.52L716.32 469L726.56 474.12L733.6 478.6L742.56 485.64L752.8 495.88L759.84 505.48L764.96 514.44L769.44 524.04L772.64 534.28L773.28 537.48L773.92 557.96V575.24L772.64 586.12L768.8 597.64L763.68 608.52L759.2 615.56L752.16 624.52L740 636.68L729.12 644.36L718.24 650.12L702.24 655.88L689.44 658.44L683.68 659.08H668.32L654.88 657.16L645.28 654.6L643.36 652.68L658.72 647.56L668.96 642.44L676.64 637.96L684.32 632.2L692 625.16L697.76 618.12L702.88 611.08L708.64 600.84L712.48 591.24L716.32 577.8L717.6 567.56V552.84L715.68 538.76L711.84 526.6L706.72 515.08L702.88 508.68L697.76 501.64L692 495.24L684.96 488.2L675.36 481.16L665.76 475.4L656.16 471.56L644 467.08L643.36 465.8L653.6 463.24L665.12 461.32L672.8 460.68ZM669.6 465.16L659.36 466.44V467.72L672.8 474.12L682.4 480.52L688.8 485.64L699.04 495.88L706.08 505.48L711.2 514.44L715.68 524.04L718.88 533.64L721.44 545.8L722.08 552.84V567.56L720.8 578.44L717.6 590.6L713.12 602.12L708 611.72L701.6 620.68L693.92 629.64L686.88 636.04L676.64 643.08L666.4 648.84L659.36 652.04L660 653.32L666.4 654.6H684.96L697.12 652.68L706.08 650.12L716.32 646.28L727.2 640.52L737.44 632.84L745.12 625.8L750.88 619.4L758.56 607.88L763.68 598.28L767.52 588.04L770.08 576.52L770.72 572.04V547.08L768.16 533.64L763.68 521.48L757.92 510.6L751.52 501.64L745.76 495.24L737.44 486.92L726.56 479.24L718.88 474.76L708 470.28L699.68 467.72L688.8 465.8L681.76 465.16H669.6Z" fill="#080808"/>
<path d="M800.16 931.72H842.4L853.92 933L860.96 935.56L866.72 940.04L871.2 946.44L873.12 952.2L873.76 957.32V965.64L871.2 975.88L866.72 981.64L861.6 985.48L856.48 988.04L846.24 989.96H842.4L848.16 997L855.84 1004.68L860.32 1009.8L870.56 1020.04V1021.32H871.84L873.76 1023.88L873.12 1026.44L869.92 1025.16L865.44 1020.68V1019.4L862.88 1018.12V1016.84H861.6L857.12 1011.72L843.04 997.64L838.56 992.52L837.92 990.6L821.28 989.96L817.44 987.4L816.16 985.48V980.36L818.72 976.52L824.48 974.6L829.6 977.16L834.08 981.64L837.28 985.48L840.48 986.12L850.72 984.84L857.12 982.92L863.52 979.08L867.36 972.68L869.28 965.64V956.68L867.36 949L863.52 943.24L858.4 939.4L853.92 937.48L844.96 936.2H794.4L793.76 940.04L793.12 1025.16H789.28V941.32L789.92 936.2L792.48 933L793.76 932.36L800.16 931.72Z" fill="#080808"/>
<path d="M315.68 929.8L319.52 930.44L324 934.92L332.32 947.08L340 957.96L347.04 968.2L356 981L363.04 991.24L372 1004.04L379.68 1014.92L384.8 1021.96L389.28 1022.6L390.56 1020.68L391.2 933L392.48 931.72H395.04V1020.68L393.76 1023.88L390.56 1026.44L387.36 1027.08L382.88 1025.8L378.4 1020.68L370.08 1008.52L362.4 997.64L354.08 985.48L346.4 974.6L339.36 964.36L331.68 953.48L324.64 943.24L319.52 936.2L317.6 934.28L313.76 934.92L312.48 938.12L311.84 1024.52L311.2 1025.16H308V936.2L309.28 933L313.12 930.44L315.68 929.8Z" fill="#080808"/>
<path d="M226.08 931.72H287.52L291.36 932.36L290.72 935.56L221.6 936.2L218.4 936.84L217.76 938.76V976.52L229.92 974.6H238.88L254.88 977.8L261.28 978.44H267.04L275.36 977.16L280.48 976.52L281.12 977.8L278.56 980.36L269.6 982.28H258.08L241.44 979.08L233.12 978.44L222.24 979.72L217.76 981.64V1016.84L218.4 1020.04L220.96 1020.68L291.36 1021.32L290.72 1024.52L286.88 1025.16H222.24L216.48 1023.88L213.92 1020.68L213.28 1014.92V941.96L213.92 936.2L216.48 933L217.76 932.36L226.08 931.72Z" fill="#080808"/>
<path d="M597.92 931.72H661.28L665.12 932.36L664.48 935.56L595.36 936.2L592.16 936.84L591.52 938.76V976.52L603.68 974.6H612L628.64 977.8L634.4 978.44H640.16L649.12 977.16L654.24 976.52L653.6 979.72L646.56 981.64L642.72 982.28H631.84L615.84 979.08L606.88 978.44L596 979.72L591.52 981V1016.2L592.16 1020.04L594.08 1020.68L665.12 1021.32L664.48 1024.52L658.08 1025.16H594.72L590.24 1023.88L587.68 1020.68L587.04 1014.92V939.4L588.32 934.92L590.24 933L597.92 931.72Z" fill="#080808"/>
<path d="M907.68 931.72H974.24L974.88 933.64L973.6 935.56L905.12 936.2L901.92 936.84L901.28 938.76V976.52L914.08 974.6H922.4L938.4 977.8L949.28 978.44L958.88 977.16L964 976.52L964.64 977.8L962.08 980.36L953.12 982.28H941.6L925.6 979.08L915.36 978.44L903.2 980.36L901.28 981V1016.84L901.92 1020.04L904.48 1020.68L974.88 1021.32L974.24 1024.52L970.4 1025.16H905.76L899.36 1023.88L897.44 1020.68L896.8 1014.28V939.4L898.08 935.56L901.28 932.36L907.68 931.72Z" fill="#080808"/>
<path d="M1114.4 930.44H1131.04L1141.92 933L1150.88 937.48L1156.64 942.6L1161.12 950.28L1160.48 952.84L1157.92 952.2L1152.8 945.16L1147.04 940.04L1140 936.84L1131.68 934.92H1113.12L1104.16 936.84L1095.84 940.04L1090.72 943.88L1087.52 948.36L1086.24 952.2V960.52L1088.8 965.64L1093.28 969.48L1101.6 972.68L1137.44 979.08L1150.88 982.92L1157.28 986.76L1162.4 992.52L1163.68 996.36V1004.68L1161.12 1011.08L1157.28 1016.2L1150.24 1020.68L1141.92 1023.88L1130.4 1026.44H1113.12L1103.52 1024.52L1093.28 1020.68L1086.88 1016.2L1082.4 1011.72L1079.2 1006.6L1079.84 1004.04L1083.04 1005.32L1088.16 1011.72L1093.92 1016.2L1100.96 1019.4L1111.2 1021.96L1117.6 1022.6H1125.92L1134.88 1021.32L1145.12 1018.12L1152.8 1014.28L1157.28 1009.16L1159.2 1004.68V996.36L1156 991.24L1150.88 987.4L1140.64 984.2L1124 981L1102.24 977.16L1094.56 974.6L1087.52 970.76L1083.04 965L1081.76 961.16V952.2L1084.32 945.16L1090.08 938.76L1095.2 935.56L1106.72 931.72L1114.4 930.44Z" fill="#080808"/>
<path d="M517.92 930.44H534.56L545.44 933L554.4 937.48L560.16 942.6L564 949V952.84L560.8 951.56L555.68 944.52L551.2 940.68L543.52 936.84L535.2 934.92H516.64L507.68 936.84L499.36 940.04L494.24 943.88L490.4 949.64L489.76 952.2V960.52L491.68 965L496.8 969.48L505.12 972.68L526.88 976.52L543.52 979.72L554.4 982.92L560.16 986.12L564.64 990.6L566.56 994.44L567.2 997V1004.04L565.28 1009.8L562.72 1013.64L558.24 1018.12L549.28 1022.6L537.76 1025.8L533.28 1026.44H516.64L507.04 1024.52L498.08 1021.32L491.04 1016.84L485.92 1011.72L482.72 1005.96V1004.68H485.92L491.68 1011.72L496.16 1015.56L504.48 1019.4L514.72 1021.96L520.48 1022.6H529.44L538.4 1021.32L548.64 1018.12L556.32 1014.28L560.8 1009.16L562.72 1004.68V996.36L559.52 991.24L556.32 988.68L549.28 985.48L539.04 982.92L505.76 977.16L495.52 973.32L489.76 969.48L486.56 965L485.28 960.52V952.2L487.84 945.16L493.6 938.76L498.72 935.56L510.24 931.72L517.92 930.44Z" fill="#080808"/>
<path d="M116 931.72H183.2L192.16 932.36L195.36 935.56L196 941.32L193.44 945.8L188.32 950.92L183.2 955.4L177.44 961.16L172.32 965.64L167.84 970.12L162.72 974.6L157.6 979.72L152.48 984.2L145.44 991.24L140.32 995.72L132.64 1003.4L127.52 1007.88L122.4 1013H121.12L119.84 1015.56L120.48 1018.76L121.12 1020.04L123.68 1020.68L196 1021.32L196.64 1022.6L196 1024.52L192.16 1025.16H123.04L118.56 1023.24L116.64 1021.32L116 1019.4V1014.92L118.56 1011.08L124.96 1004.68L130.08 1000.2L135.84 994.44L140.96 989.96L146.72 984.2L151.84 979.72L157.6 973.96L162.72 969.48L168.48 963.72L173.6 959.24L178.72 954.12L183.84 949.64L187.68 945.8H188.96L190.24 943.24L191.52 941.32V937.48L188.96 936.2L116 935.56V931.72Z" fill="#080808"/>
<path d="M720.16 930.44H736.8L747.04 932.36L757.28 936.84L764.32 941.96L769.44 947.72L770.72 950.28V952.84L767.52 951.56L759.84 943.24L750.88 938.12L742.56 935.56L731.04 934.28L719.52 934.92L709.92 937.48L700.96 941.96L694.56 947.72L690.08 954.76L686.88 963.08L685.6 968.84L684.96 981L686.24 991.24L688.8 999.56L692.64 1006.6L698.4 1013L704.8 1017.48L715.04 1021.32L723.36 1022.6H735.52L745.12 1020.68L754.72 1016.84L760.48 1013L763.68 1009.8L768.16 1004.68H770.72L770.08 1007.88L765.6 1014.28L757.92 1020.04L748.96 1023.88L741.92 1025.8L737.44 1026.44H720.8L711.2 1024.52L702.88 1021.32L694.56 1015.56L689.44 1009.8L685.6 1003.4L682.4 994.44L681.12 988.04V968.84L683.68 958.6L688.8 948.36L692.64 943.24L699.04 938.12L709.28 933L720.16 930.44Z" fill="#080808"/>
<path d="M980.64 931.72H1067.04L1068.96 932.36L1068.32 935.56L1028 936.2L1027.36 955.4V1024.52L1026.72 1025.16H1022.88V936.2L980.64 935.56L980 932.36L980.64 931.72Z" fill="#080808"/>
<path d="M642.081 539.4H643.361L649.761 550.92L653.601 554.12L662.561 558.6L663.201 560.52L658.081 563.72L651.041 567.56L643.361 580.36H641.441L635.681 569.48L630.561 565.64L624.161 561.8L621.601 560.52V559.24L633.121 552.84L636.961 548.36L642.081 539.4Z" fill="#080808"/>
<path d="M645.28 377.48H649.76L650.4 378.12V455.56L645.92 456.2L645.28 447.24V377.48Z" fill="#080808"/>
<path d="M646.56 663.56L650.4 664.84V740.36L649.76 741H645.28V689.16L645.92 664.2L646.56 663.56Z" fill="#080808"/>
<path d="M467.36 557.32L543.52 557.96L544.16 559.24L543.52 562.44H466.72V557.96L467.36 557.32Z" fill="#080808"/>
<path d="M606.24 655.88H609.44L608.8 661L603.68 673.8L591.52 702.6L581.92 725.64L580 728.84L576.8 728.2L577.44 723.72L588.32 697.48L604.32 659.08L606.24 655.88Z" fill="#080808"/>
<path d="M519.201 429.96L521.761 430.6L574.881 483.72L574.241 487.56L571.681 486.92L564.641 480.52L560.161 475.4L556.961 472.84L533.921 449.8L530.081 445.32L524.961 440.84V439.56H523.681L519.201 434.44L518.561 433.8V430.6L519.201 429.96Z" fill="#080808"/>
<path d="M572.321 632.84L574.881 633.48V636.68L572.961 638.6H571.681L570.401 641.16H569.121L567.841 643.72L543.521 668.04L538.401 672.52L521.121 689.8L518.561 689.16V685.96L571.041 633.48L572.321 632.84Z" fill="#080808"/>
<path d="M576.8 391.56H580L581.92 394.12L591.52 417.8L603.04 445.32L609.44 461.32V463.88L606.24 464.52L602.4 456.84L597.28 444.04L587.68 421L580.64 403.72L576.8 393.48V391.56Z" fill="#080808"/>
<path d="M478.88 488.84L484 489.48L509.6 500.36L534.56 510.6L549.92 517L552.48 518.28L551.2 521.48L549.92 522.12L497.44 500.36L482.08 493.96L479.52 492.68L478.88 488.84Z" fill="#080808"/>
<path d="M549.28 598.28L551.84 598.92V602.12L524.32 613.64L499.36 623.88L482.72 630.92H479.52L478.88 627.72L484.64 625.16L503.84 616.84L527.52 607.24L549.28 598.28Z" fill="#080808"/>
<path d="M584.48 643.72L587.04 645L586.4 648.84L581.92 655.24L574.24 668.04L567.84 677.64L564 684.04L561.44 683.4L560.16 680.84L567.2 669.32L571.68 662.28L579.36 650.12L583.2 645L584.48 643.72Z" fill="#080808"/>
<path d="M620.32 660.36H624.16L624.8 661.64L618.4 698.76L617.12 704.52L615.2 705.8L612.64 704.52L617.76 672.52L619.68 661.64L620.32 660.36Z" fill="#080808"/>
<path d="M497.44 530.44L505.12 531.08L541.6 537.48L542.88 538.12L542.24 541.96L528.16 540.04L498.08 534.92L497.44 534.28V530.44Z" fill="#080808"/>
<path d="M519.2 477.32L521.76 477.96L534.56 485.64L545.44 492.68L557.6 500.36L558.88 502.28L556.96 504.84L553.76 503.56L540.32 495.24L526.24 486.28L519.84 482.44L519.2 481.16V477.32Z" fill="#080808"/>
<path d="M559.52 437L562.72 438.28L571.04 449.8L578.72 460.68L586.4 472.2L587.04 475.4L584.48 476.04L579.36 470.28L572.32 460.04L564 448.52L558.88 440.84V437.64L559.52 437Z" fill="#080808"/>
<path d="M612 415.24L615.2 415.88L621.6 443.4L624.8 458.76V460.04H620.96L619.04 454.28L612.64 426.76L611.36 420.36V415.88L612 415.24Z" fill="#080808"/>
<path d="M555.68 615.56H558.24V618.76L548.64 625.8L535.84 634.76L524.96 642.44L523.04 643.72L520.48 643.08L519.84 639.88L531.36 632.2L542.88 623.88L554.4 616.2L555.68 615.56Z" fill="#080808"/>
<path d="M540.32 577.8H542.24V582.28L519.2 587.4L500 591.88L498.08 591.24L497.44 588.68L500.64 586.76L533.92 579.08L540.32 577.8Z" fill="#080808"/>
</svg>
