<?xml version="1.0" encoding="UTF-8"?>
<svg version="1.1" viewBox="0 0 2000 2000" width="1280" height="1280" xmlns="http://www.w3.org/2000/svg">
<path transform="translate(0)" d="m0 0h2e3v2e3h-2e3z" fill="#FEFEFE"/>
<path transform="translate(970,100)" d="m0 0h60l35 3 35 5 36 8 28 8 29 10 29 12 33 16 23 13 24 15 17 12 16 12 17 14 10 9 8 7 33 33 9 11 13 15 15 20 12 17 14 22 12 21 12 23 13 29 13 35 8 26 6 24 6 31 4 29 2 20 1 17v538l-5 2-4-1-1-1-1-546-3-33-5-32-8-36-9-31-11-31-14-32-12-24-14-24-16-25-12-16-10-13-9-11-11-13-14-15-23-23-8-7-15-13-17-13-16-12-23-15-22-13-22-12-33-15-29-11-29-9-32-8-32-6-33-4-36-2h-32l-33 2-26 3-29 5-30 7-31 9-25 9-26 11-25 12-28 15-19 12-16 11-16 12-13 10-14 12-10 9-13 12-18 18-7 8-9 10-11 14-8 10-13 18-10 15-13 21-13 24-15 31-11 28-11 33-8 30-7 37-4 32-2 27v427l-1 122h-9l-1-536 1-25 3-31 5-32 6-28 8-30 12-35 10-24 9-20 10-19 11-20 15-24 12-17 12-16 13-16 11-12 7-8 3-4h2l2-4 16-16 8-7 14-13 14-11 11-9 18-13 15-10 21-13 27-15 27-13 27-11 36-12 21-6 37-8 34-5z" fill="#080808"/>
<path transform="translate(1077,569)" d="m0 0h19l18 2 17 4 16 6 16 8 16 11 12 11 12 12 12 17 9 17 7 19 4 21v39l-3 17-5 16-7 16-9 15-9 12-12 13-13 11-14 9-15 8-20 7-12 3-15 2h-29l-10-2-1-2 19-9 17-11 10-8 11-10 9-11 8-11 8-14 5-11 7-21 3-15 1-11v-23l-2-17-5-20-8-19-8-15-10-14-11-12-11-11-17-12-21-11-5-2v-2z" fill="#FEFEFE"/>
<path transform="translate(456,1716)" d="m0 0h26l38 1 9 5 7 7 3 7v95l-3 7-5 5-6 3-7 1h-85l-10-3-5-4-4-7-2-13v-59l1-23 4-9 7-7 9-5z" fill="#FEFEFE"/>
<path transform="translate(458,1576)" d="m0 0h1084l2 4-1 3-5 1h-1046l-36-1v-6z" fill="#080808"/>
<path transform="translate(1082,562)" d="m0 0h14l18 2 17 4 19 7 16 8 11 7 14 11 16 16 11 15 8 14 7 15 5 16 1 5 1 32v27l-2 17-6 18-8 17-7 11-11 14-19 19-17 12-17 9-25 9-20 4-9 1h-24l-21-3-15-4-3-3 24-8 16-8 12-7 12-9 12-11 9-11 8-11 9-16 6-15 6-21 2-16v-23l-3-22-6-19-8-18-6-10-8-11-9-10-11-11-15-11-15-9-15-6-19-7-1-2 16-4 18-3zm-5 7-16 2v2l21 10 15 10 10 8 16 16 11 15 8 14 7 15 5 15 4 19 1 11v23l-2 17-5 19-7 18-8 15-10 14-12 14-11 10-16 11-16 9-11 5 1 2 10 2h29l19-3 14-4 16-6 17-9 16-12 12-11 9-10 12-18 8-15 6-16 4-18 1-7v-39l-4-21-7-19-9-17-10-14-9-10-13-13-17-12-12-7-17-7-13-4-17-3-11-1z" fill="#080808"/>
<path transform="translate(649,1750)" d="m0 0h7l11 3 9 7 5 7 2 5 1 6v11l-3 9-5 8-8 6-7 3-11 1-10-2-9-5-7-8-4-11v-15l3-8 4-6 8-7 8-3z" fill="#FEFEFE"/>
<path transform="translate(1281,1298)" d="m0 0h66l18 2 11 4 9 7 7 10 3 9 1 8v13l-4 16-7 9-8 6-8 4-16 3h-6l9 11 12 12 7 8 16 16v2h2l3 4-1 4-5-2-7-7v-2l-4-2v-2h-2l-7-8-22-22-7-8-1-3-26-1-6-4-2-3v-8l4-6 9-3 8 4 7 7 5 6 5 1 16-2 10-3 10-6 6-10 3-11v-14l-3-12-6-9-8-6-7-3-14-2h-79l-1 6-1 133h-6v-131l1-8 4-5 2-1z" fill="#080808"/>
<path transform="translate(469,1750)" d="m0 0h14l9 3 10 9 5 8 1 5v14l-5 10-5 6-8 5-6 2h-16l-10-5-8-8-4-8-1-5v-9l3-10 4-6 9-8z" fill="#FEFEFE"/>
<path transform="translate(634,1722)" d="m0 0h22l11 4 9 6 9 10 4 9 2 9v59l-5 1-2-1v-14h-2l-7 8-10 6-7 2h-14l-11-4-10-7-6-9-3-9-1-12 2-10 6-12 9-8 9-4 4-1h17l10 4 10 8 4 5-2-11-6-10-8-7-7-4-8-2h-15l-12 3-12 6-7 6-8 13-4 12-1 8v13l3 13 6 12 7 9 11 8 14 5 6 1h12l15-3 10-4h2l-1 5-10 5-12 3h-20l-16-5-10-6-10-9-9-14-4-12-1-7v-13l2-13 5-13 7-10 4-5 13-9 11-4zm15 28-12 3-6 4-7 8-3 6-1 4v15l4 11 8 9 11 5 11 1 10-2 8-5 5-5 5-8 2-7v-11l-2-8-5-9-7-6-9-4-5-1z" fill="#080808"/>
<path transform="translate(1329,1745)" d="m0 0h17l11 4 8 6 6 8 4 10 1 5v7l-1 1h-62l-7-1 2 11 6 10 7 5 8 3 6 1h10l13-4 10-7 4 1-3 6-9 6-12 4h-16l-11-3-11-7-6-8-4-9-1-6v-10l3-11 6-10 7-6 7-4z" fill="#080808"/>
<path transform="translate(805,1745)" d="m0 0h16l10 3 9 6 7 9 4 10 1 5v7l-8 1h-39l-23-1 2 11 6 10 9 6 6 2 7 1h8l12-3 11-7 4-1 1 3-5 6-11 6-8 2h-16l-11-3-10-6-6-7-4-8-2-12v-7l3-11 6-10 7-6 10-5z" fill="#080808"/>
<path transform="translate(1033,1745)" d="m0 0h17l11 4 8 6 6 8 4 11 1 11-1 1h-37l-32-1 2 11 6 10 7 5 8 3 7 1h8l9-2 13-7 5-2 1 3-5 6-12 6-7 2h-16l-13-4-10-7-6-9-3-8-1-6v-10l3-10 6-10 7-6 10-5z" fill="#080808"/>
<path transform="translate(524,1295)" d="m0 0 6 1 7 7 13 19 12 17 11 16 14 20 11 16 14 20 12 17 8 11 7 1 2-3 1-137 2-2h4v139l-2 5-5 4-5 1-7-2-7-8-13-19-12-17-13-19-12-17-11-16-12-17-11-16-8-11-3-3-6 1-2 5-1 135-1 1h-5v-139l2-5 6-4z" fill="#080808"/>
<path transform="translate(384,1298)" d="m0 0h96l6 1-1 5-108 1-5 1-1 3v59l19-3h14l25 5 10 1h9l13-2 8-1 1 2-4 4-14 3h-18l-26-5-13-1-17 2-7 3v55l1 5 4 1 110 1-1 5-6 1h-101l-9-2-4-5-1-9v-114l1-9 4-5 2-1z" fill="#080808"/>
<path transform="translate(965,1298)" d="m0 0h99l6 1-1 5-108 1-5 1-1 3v59l19-3h13l26 5 9 1h9l14-2 8-1-1 5-11 3-6 1h-17l-25-5-14-1-17 2-7 2v55l1 6 3 1 111 1-1 5-10 1h-99l-7-2-4-5-1-9v-118l2-7 3-3z" fill="#080808"/>
<path transform="translate(1449,1298)" d="m0 0h104l1 3-2 3-107 1-5 1-1 3v59l20-3h13l25 5 17 1 15-2 8-1 1 2-4 4-14 3h-18l-25-5-16-1-19 3-3 1v56l1 5 4 1 110 1-1 5-6 1h-101l-10-2-3-5-1-10v-117l2-6 5-5z" fill="#080808"/>
<path transform="translate(1772,1296)" d="m0 0h26l17 4 14 7 9 8 7 12-1 4-4-1-8-11-9-8-11-5-13-3h-29l-14 3-13 5-8 6-5 7-2 6v13l4 8 7 6 13 5 56 10 21 6 10 6 8 9 2 6v13l-4 10-6 8-11 7-13 5-18 4h-27l-15-3-16-6-10-7-7-7-5-8 1-4 5 2 8 10 9 7 11 5 16 4 10 1h13l14-2 16-5 12-6 7-8 3-7v-13l-5-8-8-6-16-5-26-5-34-6-12-4-11-6-7-9-2-6v-14l4-11 9-10 8-5 18-6z" fill="#080808"/>
<path transform="translate(840,1296)" d="m0 0h26l17 4 14 7 9 8 6 10v6l-5-2-8-11-7-6-12-6-13-3h-29l-14 3-13 5-8 6-6 9-1 4v13l3 7 8 7 13 5 34 6 26 5 17 5 9 5 7 7 3 6 1 4v11l-3 9-4 6-7 7-14 7-18 5-7 1h-26l-15-3-14-5-11-7-8-8-5-9v-2h5l9 11 7 6 13 6 16 4 9 1h14l14-2 16-5 12-6 7-8 3-7v-13l-5-8-5-4-11-5-16-4-52-9-16-6-9-6-5-7-2-7v-13l4-11 9-10 8-5 18-6z" fill="#080808"/>
<path transform="translate(212,1298)" d="m0 0h105l14 1 5 5 1 9-4 7-8 8-8 7-9 9-8 7-7 7-8 7-8 8-8 7-11 11-8 7-12 12-8 7-8 8h-2l-2 4 1 5 1 2 4 1 113 1 1 2-1 3-6 1h-108l-7-3-3-3-1-3v-7l4-6 10-10 8-7 9-9 8-7 9-9 8-7 9-9 8-7 9-9 8-7 8-8 8-7 6-6h2l2-4 2-3v-6l-4-2-114-1z" fill="#080808"/>
<path transform="translate(1156,1296)" d="m0 0h26l16 3 16 7 11 8 8 9 2 4v4l-5-2-12-13-14-8-13-4-18-2-18 1-15 4-14 7-10 9-7 11-5 13-2 9-1 19 2 16 4 13 6 11 9 10 10 7 16 6 13 2h19l15-3 15-6 9-6 5-5 7-8h4l-1 5-7 10-12 9-14 6-11 3-7 1h-26l-15-3-13-5-13-9-8-9-6-10-5-14-2-10v-30l4-16 8-16 6-8 10-8 16-8z" fill="#080808"/>
<path transform="translate(456,1716)" d="m0 0h26l38 1 9 5 7 7 3 7v95l-3 7-5 5-6 3-7 1h-85l-10-3-5-4-4-7-2-13v-59l1-23 4-9 7-7 9-5zm-13 6-10 1-8 5-6 7-2 4-1 6v77l3 10 4 6 6 4 10 2h74l12-2 6-5 4-6 1-5v-88l-4-7-8-7-4-1-31-1z" fill="#080808"/>
<path transform="translate(1563,1298)" d="m0 0h135l3 1-1 5-63 1-1 30v108l-1 1h-6v-139l-66-1-1-5z" fill="#080808"/>
<path transform="translate(1034,685)" d="m0 0h2l10 18 6 5 14 7 1 3-8 5-11 6-12 20h-3l-9-17-8-6-10-6-4-2v-2l18-10 6-7z" fill="#080808"/>
<path transform="translate(1333,1750)" d="m0 0h10l10 3 8 6 6 9 3 8v4h-65l2-10 6-10 6-5 9-4z" fill="#FEFEFE"/>
<path transform="translate(1038,1750)" d="m0 0h9l10 3 9 7 6 10 2 10h-64v-7l6-12 7-6 9-4z" fill="#FEFEFE"/>
<path transform="translate(810,1750)" d="m0 0h8l13 4 8 7 6 12 1 6-1 1h-63v-7l6-12 7-6 9-4z" fill="#FEFEFE"/>
<path transform="translate(1428,1744)" d="m0 0 13 2 8 4 7 7 4 8 2 7 1 8v39l-6 1-1-1-1-46-3-9-6-8-8-4-4-1h-9l-11 4-5 4-6 10-1 4-1 19v27l-1 1h-5l-1-3 1-71 4 1 2 14 10-11 10-5z" fill="#080808"/>
<path transform="translate(1281,1745)" d="m0 0 3 1v5l-11 14-12 14-8 10-14 17-5 6-1 3 53-1 2 1-1 5h-63l-1-4 4-6 9-11 11-13 9-11 11-13 8-11h-47l-1-5z" fill="#080808"/>
<path transform="translate(1108,1730)" d="m0 0 2 1 1 14h31l2 1-1 5-32 1v49l3 9 3 3 7 2 19-1v4l-9 3h-13l-9-4-5-6-3-10v-50h-19l2-4 10-9z" fill="#080808"/>
<path transform="translate(897,1745)" d="m0 0h16l10 3 8 6 2 2v4l-5-1-7-5-11-3h-9l-10 3-8 5-6 9-2 5-1 6v8l3 10 5 7v2l16 8 6 1h9l13-4 10-5 1 4-5 5-12 5-4 1h-14l-11-3-11-6-7-8-5-10-1-5v-11l3-11 5-9 8-7 10-5z" fill="#080808"/>
<path transform="translate(469,1750)" d="m0 0h14l9 3 10 9 5 8 1 5v14l-5 10-5 6-8 5-6 2h-16l-10-5-8-8-4-8-1-5v-9l3-10 4-6 9-8zm1 5-8 4-7 7-4 7-1 8 2 10 6 9 9 6 8 2 9-1 10-6 6-8 3-8v-9l-4-10-4-5-8-5-3-1z" fill="#080808"/>
<path transform="translate(730,1744)" d="m0 0h9l13 3 4 2-1 4-11-2-13-1-10 3-5 5-1 2 1 9 5 5 9 4 16 5 9 6 4 8v8l-4 8-6 5-8 3h-14l-13-4-7-4-2-2v-3l6 1 8 4 9 2h13l8-4 3-5v-8l-3-6-10-5-19-6-6-4-4-5-2-5 1-10 8-9 7-3z" fill="#080808"/>
<path transform="translate(1039,432)" d="m0 0h7l1 1v121l-7 1-1-14z" fill="#080808"/>
<path transform="translate(1178,1744)" d="m0 0h8l14 3 4 2-1 4-19-3-11 1-8 5-2 4 1 9 5 5 9 4 16 5 9 6 4 8v7l-3 8-7 6-8 3h-14l-11-3-9-5-2-5 2-1 12 6 8 2h14l8-4 3-5v-8l-3-6-10-5-16-5-9-5-4-5-2-6 1-8 5-8 10-5z" fill="#080808"/>
<path transform="translate(1041,879)" d="m0 0 6 2v118l-1 1h-7v-81l1-39z" fill="#080808"/>
<path transform="translate(761,713)" d="m0 0 119 1 1 2-1 5h-120v-7z" fill="#080808"/>
<path transform="translate(978,867)" d="m0 0h5l-1 8-8 20-19 45-15 36-3 5-5-1 1-7 17-41 25-60z" fill="#080808"/>
<path transform="translate(842,514)" d="m0 0 4 1 83 83-1 6-4-1-11-10-7-8-5-4-36-36-6-7-8-7v-2h-2l-7-8-1-1v-5z" fill="#080808"/>
<path transform="translate(925,831)" d="m0 0 4 1v5l-3 3h-2l-2 4h-2l-2 4-38 38-8 7-27 27-4-1v-5l82-82z" fill="#080808"/>
<path transform="translate(932,454)" d="m0 0h5l3 4 15 37 18 43 10 25v4l-5 1-6-12-8-20-15-36-11-27-6-16z" fill="#080808"/>
<path transform="translate(779,606)" d="m0 0 8 1 40 17 39 16 24 10 4 2-2 5-2 1-82-34-24-10-4-2z" fill="#080808"/>
<path transform="translate(889,777)" d="m0 0 4 1v5l-43 18-39 16-26 11h-5l-1-5 9-4 30-13 37-15z" fill="#080808"/>
<path transform="translate(982,1744)" d="m0 0h7l2 1v5l-13 1-8 3-6 5-4 6-2 7-1 18v29l-1 1h-5l-1-1 1-74 4 2 1 11 1 2 7-9 8-5z" fill="#080808"/>
<path transform="translate(1034,698)" d="m0 0h2l5 10 5 4 7 4-1 3-10 6-6 10h-3l-4-8-5-4-7-4v-3l11-8 4-7z" fill="#FEFEFE"/>
<path transform="translate(944,848)" d="m0 0 4 2-1 6-7 10-12 20-10 15-6 10-4-1-2-4 11-18 7-11 12-19 6-8z" fill="#080808"/>
<path transform="translate(1e3 874)" d="m0 0h6l1 2-10 58-2 9-3 2-4-2 8-50 3-17z" fill="#080808"/>
<path transform="translate(808,671)" d="m0 0 12 1 57 10 2 1-1 6-22-3-47-8-1-1z" fill="#080808"/>
<path transform="translate(842,588)" d="m0 0 4 1 20 12 17 11 19 12 2 3-3 4-5-2-21-13-22-14-10-6-1-2z" fill="#080808"/>
<path transform="translate(905,525)" d="m0 0 5 2 13 18 12 17 12 18 1 5-4 1-8-9-11-16-13-18-8-12v-5z" fill="#080808"/>
<path transform="translate(987,491)" d="m0 0 5 1 10 43 5 24v2h-6l-3-9-10-43-2-10v-7z" fill="#080808"/>
<path transform="translate(899,804)" d="m0 0h4v5l-15 11-20 14-17 12-3 2-4-1-1-5 18-12 18-13 18-12z" fill="#080808"/>
<path transform="translate(875,745)" d="m0 0h3v7l-36 8-30 7-3-1-1-4 5-3 52-12z" fill="#080808"/>
<path transform="translate(519,1732)" d="m0 0 6 2 2 4v7l-4 5-7 1-4-2-2-4v-7l4-5z" fill="#080808"/>
<path transform="translate(1316,1371)" d="m0 0 5 1 8 7 2 4h-16l-3-2v-7z" fill="#FEFEFE"/>
<path transform="translate(472,1762)" d="m0 0h5v4l-9 5-7 10h-3l1-8 7-8z" fill="#080808"/>
<path transform="translate(518,1735)" d="m0 0 4 2v7l-2 2h-4l1-10z" fill="#FEFEFE"/>
</svg>
